# xmcd
#
# Track frame offsets: 
#        150
#        10795
#        25297
#        37072
#        53065
#        66697
#        76937
#        92612
#        105160
#        117832
#        131192
#        141602
#        159570
#        172015
#        181672
#        194410
#        203395
#        218012
#        231372
#        244680
#
# Disc length: 3495 seconds
#
# Revision: 5
# Processed by: cddbd v1.5.2PL0 Copyright (c) Steve Scherf et al.
# Submitted via: ExactAudioCopy v1.1
#
DISCID=150da514
DTITLE=Various Artist - On The Road Again 20 Great Truck Drivin' Hits
DYEAR=2005
DGENRE=Country
TTITLE0=Dave Dudley - Six Days On The Road
TTITLE1=Red Simpson - I'm A Truck
TTITLE2=Willis Brothers - Give Me Forty Acres
TTITLE3=Rod Hart - C.B. Savage
TTITLE4=Tiny Harris - Endless Black Ribbon
TTITLE5=Duane Eddy - Forty Miles Of Bad Road
TTITLE6=George Morgan - Man Behind The Wheel
TTITLE7=Claude Gray - How Fast Them Trucks Can Go
TTITLE8=Jimmy Martin - Widow Maker
TTITLE9=Jack Greene - California Turn-Arounds
TTITLE10=Del Reeves - Looking At The World Through A Windshield
TTITLE11=Johnny Bond and Red Sovine - Gear Jammer And The Hobo
TTITLE12=Red Simpson - Roll, Truck, Roll
TTITLE13=Moore and Napier - Truck Driver's Queen
TTITLE14=Coleman Wilson - Passing Zone Blues
TTITLE15=Willis Brothers - Truck Stop Cutie
TTITLE16=Charlie Douglas and Dave Dudley - Where's The Truck
TTITLE17=Dave Dudley - Rolaids, Doan's Pills And Preparation H
TTITLE18=Red Sovine and Jean Shepard - Jackson
TTITLE19=Tommy Hill Music Festival - Convoy
EXTD=
EXTT0=
EXTT1=
EXTT2=
EXTT3=
EXTT4=
EXTT5=
EXTT6=
EXTT7=
EXTT8=
EXTT9=
EXTT10=
EXTT11=
EXTT12=
EXTT13=
EXTT14=
EXTT15=
EXTT16=
EXTT17=
EXTT18=
EXTT19=
PLAYORDER=
